<svg xmlns="http://www.w3.org/2000/svg" viewBox="0 0 236.1 26">
                                <path d="M107.1,22.4a12.1,12.1,0,0,0,7.8,2.5c5.6,0,8.2-2.2,8.2-5.6s-3.8-5.1-7.8-6.3-8.5-2.4-8.5-6.6S110.3.2,115.2.2s8.1,2.2,8.1,2.2l-.5.7S120.4,1,115.2,1s-7.7,1.8-7.7,5.4,3.8,4.6,7.7,5.8,8.7,2.6,8.7,7.2-2.7,6.5-9,6.5a13.1,13.1,0,0,1-8.3-2.6Z"></path>
                                <path d="M114.8,25.9a13.2,13.2,0,0,1-8.5-2.7h-.1l.8-1h.1a12,12,0,0,0,7.6,2.4c5.2,0,8-1.9,8-5.5s-3.3-4.9-7.7-6.1h-.3c-4.1-1.2-8.3-2.4-8.3-6.7S109.9,0,115.2,0s8.1,2.1,8.2,2.2h.1l-.7,1h-.2s-2.4-2-7.5-2-7.5,1.6-7.5,5.2,3.7,4.5,7.6,5.6,8.8,2.5,8.8,7.3S120.7,25.9,114.8,25.9Zm-8.1-2.8a13.4,13.4,0,0,0,8.1,2.5c7.7,0,8.9-3.9,8.9-6.3,0-4.5-4.5-5.8-8.5-7s-7.8-2.3-7.8-5.9S111.3.8,115.2.8s6.9,1.5,7.6,2l.3-.4c-.5-.4-2.9-2-7.9-2s-8.4,2.4-8.4,6.1,3.9,5.1,8.1,6.3h.3c3.5,1,7.9,2.3,7.9,6.5s-3,5.8-8.3,5.8a12.4,12.4,0,0,1-7.7-2.4Z"></path>
                                <path d="M145.8,1.5h-9.2V25.2h-.9V1.5h-9.2V.7h19.2Z"></path>
                                <path d="M136.8,25.4h-1.2V1.7h-9.2V.5H146V1.7h-9.2Zm-.9-.3h.5V1.3h9.2V.9H126.7v.5h9.2Z"></path>
                                <path d="M150.2,15.2V.7h.9V15.2c0,5.9,3,9.8,8.8,9.8s8.8-3.8,8.8-9.8V.7h.9V15.2c0,6.5-3.4,10.6-9.7,10.6S150.2,21.6,150.2,15.2Z"></path>
                                <path d="M159.9,25.9c-6.2,0-9.9-4-9.9-10.8V.5h1.2V15.2c0,6.1,3.2,9.6,8.7,9.6s8.7-3.5,8.7-9.6V.5h1.2V15.2C169.8,21.9,166.1,25.9,159.9,25.9ZM150.4.9V15.2c0,6.5,3.6,10.4,9.5,10.4s9.5-3.9,9.5-10.4V.9h-.5V15.2c0,6.3-3.3,9.9-9,9.9s-9-3.6-9-9.9V.9Z"></path>
                                <path d="M184.7,25.2h-7.4V.7h7.4c7.5,0,13.2,4.4,13.2,12.3S192.2,25.2,184.7,25.2ZM178.2,1.5V24.4h6.6c6.9,0,12.3-4.3,12.3-11.4S191.6,1.5,184.7,1.5Z"></path>
                                <path d="M184.7,25.4h-7.6V.5h7.6C192.8.5,198,5.4,198,13S192.8,25.4,184.7,25.4Zm-7.2-.3h7.2c7.9,0,13-4.7,13-12.1S192.6.9,184.7.9h-7.2Zm7.3-.5H178V1.3h6.8c7.3,0,12.4,4.8,12.4,11.6S192.1,24.6,184.7,24.6Zm-6.4-.3h6.4c7.1,0,12.1-4.6,12.1-11.3s-5-11.3-12.1-11.3h-6.4Z"></path>
                                <path d="M205,25.2h-.9V.7h.9Z"></path>
                                <path d="M205.1,25.4h-1.2V.5h1.2Zm-.9-.3h.5V.9h-.5Z"></path>
                                <path d="M211.1,13C211.1,5.7,216,.2,223.5.2S235.9,5.7,235.9,13,231,25.8,223.5,25.8,211.1,20.3,211.1,13ZM235,13C235,6.6,230.9,1,223.5,1S212,6.6,212,13,216.1,25,223.5,25,235,19.4,235,13Z"></path>
                                <path d="M223.5,26C216.1,26,211,20.7,211,13s5.2-13,12.6-13,12.6,5.4,12.6,13S230.9,26,223.5,26Zm0-25.6c-7.2,0-12.2,5.2-12.2,12.7s5,12.6,12.2,12.6,12.2-5.2,12.2-12.6S230.7.3,223.5.3Zm0,24.8a11.2,11.2,0,0,1-8.7-3.6,12.6,12.6,0,0,1-3-8.5c0-5.9,3.7-12.2,11.7-12.2S235.2,7.2,235.2,13a12.6,12.6,0,0,1-3,8.5A11.2,11.2,0,0,1,223.5,25.2Zm0-24c-7.8,0-11.3,6.2-11.3,11.9,0,8.1,5.9,11.8,11.3,11.8s11.3-3.7,11.3-11.8C234.9,7.3,231.3,1.2,223.5,1.2Z"></path>
                                <path d="M24.8,13C24.8,5.9,29.7.2,37.9.2S51,5.9,51,13,46.1,25.8,37.9,25.8,24.8,20,24.8,13Zm20.1,0a6.8,6.8,0,0,0-7-7.1A6.8,6.8,0,0,0,30.9,13,6.8,6.8,0,0,0,37.9,20,6.8,6.8,0,0,0,44.9,13Z"></path>
                                <path d="M53.5,13C53.5,5.9,58.4.2,66.6.2S79.7,5.9,79.7,13,74.8,25.8,66.6,25.8,53.5,20,53.5,13Zm20.1,0a7,7,0,1,0-14,0,7,7,0,1,0,14,0Z"></path><path d="M81,.7h21.3V5.8H94.7V25.2H88.7V5.8H81Z"></path>
                                <path d="M0,.7H11.6c6.2,0,10.2,3.2,10.2,8.5a7.9,7.9,0,0,1-3.9,7.2l-.3.2h-.2L23.3,25a.2.2,0,0,1-.1.3H18.8a4.5,4.5,0,0,1-3.7-2l-3.5-5.2H5.9v7.2H0ZM11.3,5.8H5.9v7.4h5.4c2.7,0,4.2-1.2,4.2-3.7S14.1,5.8,11.3,5.8Z"></path>
                            </svg>
